#Comment line ignore any data following # character 
#Hierarchical Translation and Rotation (.htr) file 
[Header]	
#Header keywords are followed by a single value 
FileType HTR		#Single word string
DataType HTRS		#Translation followed by rotation and scale data
FileVersion 1		#integer
NumSegments 64		#integer
NumFrames 3		#integer
DataFrameRate 30		#integer, data frame rate in this file
EulerRotationOrder ZYX
CalibrationUnits mm
RotationUnits Degrees
GlobalAxisofGravity Y
BoneLengthAxis Y
ScaleFactor 1.00
[SegmentNames&Hierarchy]
#CHILD	PARENT
Pinger_Root GLOBAL
Pelvis Pinger_Root
L_Hip Pelvis
R_Hip Pelvis
Rear_Leg01 Pelvis
Spine1 Pelvis
L_Leg01 L_Hip
L_Leg02 L_Leg01
L_Leg03 L_Leg02
L_Foot L_Leg03
L_Toe1_01 L_Foot
L_Toe2_01 L_Foot
L_Toe3_01 L_Foot
planeAlignerLeft L_Foot
L_Toe1_02 L_Toe1_01
L_Toe1_03 L_Toe1_02
L_Toe2_02 L_Toe2_01
L_Toe2_03 L_Toe2_02
L_Toe3_02 L_Toe3_01
L_Toe3_03 L_Toe3_02
planeLockWeightLeft planeAlignerLeft
R_Leg01 R_Hip
R_Leg02 R_Leg01
R_Leg03 R_Leg02
R_Foot R_Leg03
planeAlignerRight R_Foot
R_Toe1_01 R_Foot
R_Toe2_01 R_Foot
R_Toe3_01 R_Foot
planeLockWeightRight planeAlignerRight
R_Toe1_02 R_Toe1_01
R_Toe1_03 R_Toe1_02
R_Toe2_02 R_Toe2_01
R_Toe2_03 R_Toe2_02
R_Toe3_02 R_Toe3_01
R_Toe3_03 R_Toe3_02
Rear_Leg02 Rear_Leg01
Rear_Leg03 Rear_Leg02
Rear_Leg04 Rear_Leg03
Rear_Foot Rear_Leg04
planeAlignerCenter Rear_Foot
Rear_Toe1_01 Rear_Foot
Rear_Toe2_01 Rear_Foot
Rear_Toe3_01 Rear_Foot
planeLockWeightCenter planeAlignerCenter
Rear_Toe1_02 Rear_Toe1_01
Rear_Toe1_03 Rear_Toe1_02
Rear_Toe2_02 Rear_Toe2_01
Rear_Toe2_03 Rear_Toe2_02
Rear_Toe3_02 Rear_Toe3_01
Rear_Toe3_03 Rear_Toe3_02
Back_Bone Spine1
Head Spine1
Motor_Bone Back_Bone
Ping_Mechanism Back_Bone
BN_LookIK Head
bottomMouth Head
L_Mouth01 Head
L_mouthFront Head
mouthGun Head
R_Mouth01 Head
R_mouthFront Head
TopMouth Head
weapon_bone Head
[BasePosition]
#SegmentName Tx, Ty, Tz, Rx, Ry, Rz, BoneLength
Pinger_Root 0.000000 0.000000 0.000000 -90.000000 0.000000 0.000000 10.000000 
Pelvis 0.000000 0.000000 0.000000 0.000000 0.000000 0.000000 10.000000 
L_Hip 0.000000 0.000000 0.000000 0.000000 0.000000 0.000000 10.000000 
R_Hip 0.000000 0.000000 0.000000 0.000000 0.000000 0.000000 10.000000 
Rear_Leg01 0.000000 0.000000 0.000000 0.000000 0.000000 0.000000 10.000000 
Spine1 0.000000 0.000000 0.000000 0.000000 0.000000 0.000000 10.000000 
L_Leg01 0.000000 0.000000 0.000000 0.000000 0.000000 0.000000 10.000000 
L_Leg02 0.000000 0.000000 0.000000 0.000000 0.000000 0.000000 10.000000 
L_Leg03 0.000000 0.000000 0.000000 0.000000 0.000000 0.000000 10.000000 
L_Foot 0.000000 0.000000 0.000000 0.000000 0.000000 0.000000 10.000000 
L_Toe1_01 0.000000 0.000000 0.000000 0.000000 0.000000 0.000000 10.000000 
L_Toe2_01 0.000000 0.000000 0.000000 0.000000 0.000000 0.000000 10.000000 
L_Toe3_01 0.000000 0.000000 0.000000 0.000000 0.000000 0.000000 10.000000 
planeAlignerLeft 0.000000 0.000000 0.000000 0.000000 0.000000 0.000000 10.000000 
L_Toe1_02 0.000000 0.000000 0.000000 0.000000 0.000000 0.000000 10.000000 
L_Toe1_03 0.000000 0.000000 0.000000 0.000000 0.000000 0.000000 10.000000 
L_Toe2_02 0.000000 0.000000 0.000000 0.000000 0.000000 0.000000 10.000000 
L_Toe2_03 0.000000 0.000000 0.000000 0.000000 0.000000 0.000000 10.000000 
L_Toe3_02 0.000000 0.000000 0.000000 0.000000 0.000000 0.000000 10.000000 
L_Toe3_03 0.000000 0.000000 0.000000 0.000000 0.000000 0.000000 10.000000 
planeLockWeightLeft 0.000000 0.000000 0.000000 0.000000 0.000000 0.000000 10.000000 
R_Leg01 0.000000 0.000000 0.000000 0.000000 0.000000 0.000000 10.000000 
R_Leg02 0.000000 0.000000 0.000000 0.000000 0.000000 0.000000 10.000000 
R_Leg03 0.000000 0.000000 0.000000 0.000000 0.000000 0.000000 10.000000 
R_Foot 0.000000 0.000000 0.000000 0.000000 0.000000 0.000000 10.000000 
planeAlignerRight 0.000000 0.000000 0.000000 0.000000 0.000000 0.000000 10.000000 
R_Toe1_01 0.000000 0.000000 0.000000 0.000000 0.000000 0.000000 10.000000 
R_Toe2_01 0.000000 0.000000 0.000000 0.000000 0.000000 0.000000 10.000000 
R_Toe3_01 0.000000 0.000000 0.000000 0.000000 0.000000 0.000000 10.000000 
planeLockWeightRight 0.000000 0.000000 0.000000 0.000000 0.000000 0.000000 10.000000 
R_Toe1_02 0.000000 0.000000 0.000000 0.000000 0.000000 0.000000 10.000000 
R_Toe1_03 0.000000 0.000000 0.000000 0.000000 0.000000 0.000000 10.000000 
R_Toe2_02 0.000000 0.000000 0.000000 0.000000 0.000000 0.000000 10.000000 
R_Toe2_03 0.000000 0.000000 0.000000 0.000000 0.000000 0.000000 10.000000 
R_Toe3_02 0.000000 0.000000 0.000000 0.000000 0.000000 0.000000 10.000000 
R_Toe3_03 0.000000 0.000000 0.000000 0.000000 0.000000 0.000000 10.000000 
Rear_Leg02 0.000000 0.000000 0.000000 0.000000 0.000000 0.000000 10.000000 
Rear_Leg03 0.000000 0.000000 0.000000 0.000000 0.000000 0.000000 10.000000 
Rear_Leg04 0.000000 0.000000 0.000000 0.000000 0.000000 0.000000 10.000000 
Rear_Foot 0.000000 0.000000 0.000000 0.000000 0.000000 0.000000 10.000000 
planeAlignerCenter 0.000000 0.000000 0.000000 0.000000 0.000000 0.000000 10.000000 
Rear_Toe1_01 0.000000 0.000000 0.000000 0.000000 0.000000 0.000000 10.000000 
Rear_Toe2_01 0.000000 0.000000 0.000000 0.000000 0.000000 0.000000 10.000000 
Rear_Toe3_01 0.000000 0.000000 0.000000 0.000000 0.000000 0.000000 10.000000 
planeLockWeightCenter 0.000000 0.000000 0.000000 0.000000 0.000000 0.000000 10.000000 
Rear_Toe1_02 0.000000 0.000000 0.000000 0.000000 0.000000 0.000000 10.000000 
Rear_Toe1_03 0.000000 0.000000 0.000000 0.000000 0.000000 0.000000 10.000000 
Rear_Toe2_02 0.000000 0.000000 0.000000 0.000000 0.000000 0.000000 10.000000 
Rear_Toe2_03 0.000000 0.000000 0.000000 0.000000 0.000000 0.000000 10.000000 
Rear_Toe3_02 0.000000 0.000000 0.000000 0.000000 0.000000 0.000000 10.000000 
Rear_Toe3_03 0.000000 0.000000 0.000000 0.000000 0.000000 0.000000 10.000000 
Back_Bone 0.000000 0.000000 0.000000 0.000000 0.000000 0.000000 10.000000 
Head 0.000000 0.000000 0.000000 0.000000 0.000000 0.000000 10.000000 
Motor_Bone 0.000000 0.000000 0.000000 0.000000 0.000000 0.000000 10.000000 
Ping_Mechanism 0.000000 0.000000 0.000000 0.000000 0.000000 0.000000 10.000000 
BN_LookIK 0.000000 0.000000 0.000000 0.000000 0.000000 0.000000 10.000000 
bottomMouth 0.000000 0.000000 0.000000 0.000000 0.000000 0.000000 10.000000 
L_Mouth01 0.000000 0.000000 0.000000 0.000000 0.000000 0.000000 10.000000 
L_mouthFront 0.000000 0.000000 0.000000 0.000000 0.000000 0.000000 10.000000 
mouthGun 0.000000 0.000000 0.000000 0.000000 0.000000 0.000000 10.000000 
R_Mouth01 0.000000 0.000000 0.000000 0.000000 0.000000 0.000000 10.000000 
R_mouthFront 0.000000 0.000000 0.000000 0.000000 0.000000 0.000000 10.000000 
TopMouth 0.000000 0.000000 0.000000 0.000000 0.000000 0.000000 10.000000 
weapon_bone 0.000000 0.000000 0.000000 0.000000 0.000000 0.000000 10.000000 
#Beginning of Data. Separated by tabs
#Fr	Tx	Ty	Tz	Rx	Ry	Rz	SF
[Pinger_Root]
38 0.000000 0.000000 0.000000 -0.000075 -0.000000 -0.000020 0.000000
39 0.000000 0.000000 0.000000 -0.000075 -0.000000 -0.000020 0.000000
40 0.000000 0.000000 0.000000 -0.000075 -0.000000 -0.000020 0.000000
[Pelvis]
38 -433.166290 1135.739624 2985.788086 -74.745056 -78.747437 62.162903 3223.734863
39 -433.166290 1135.739624 2985.788086 -74.745056 -78.747437 62.162903 3223.734863
40 -433.166290 1135.739624 2985.788086 -74.745056 -78.747437 62.162903 3223.734863
[L_Hip]
38 5.766392 125.831482 872.656799 -170.539642 -57.257469 91.331032 881.701050
39 5.766392 125.831482 872.656799 -170.539169 -57.258057 91.330193 881.701050
40 5.766392 125.831482 872.656799 -170.538681 -57.258636 91.329330 881.701050
[R_Hip]
38 5.765438 125.836372 -872.654907 -20.272949 57.243439 56.266018 881.699829
39 5.765438 125.836372 -872.654907 -20.273508 57.243961 56.265743 881.699829
40 5.765438 125.836372 -872.654907 -20.274067 57.244465 56.265469 881.699829
[Rear_Leg01]
38 -192.298416 -925.602966 -0.001907 -173.603302 18.242077 -111.241615 945.367432
39 -192.298416 -925.602966 -0.001907 -173.603302 18.242077 -111.241615 945.367432
40 -192.298416 -925.602966 -0.001907 -173.603302 18.242077 -111.241615 945.367432
[Spine1]
38 290.604584 5.007505 0.000477 10.130131 -13.760937 15.916841 290.647736
39 290.604584 5.007505 0.000477 10.129883 -13.761270 15.917229 290.647736
40 290.604584 5.007505 0.000477 10.129631 -13.761602 15.917618 290.647736
[L_Leg01]
38 761.932007 -0.002384 -0.069261 -2.209024 16.960550 -96.637238 761.932068
39 761.932007 -0.002384 -0.069261 -2.209024 16.960550 -96.637238 761.932068
40 761.932007 -0.002384 -0.069261 -2.209024 16.960554 -96.637238 761.932068
[L_Leg02]
38 1441.140503 -0.000954 -0.000715 22.988432 27.612614 -99.747955 1441.140503
39 1441.140503 -0.000954 -0.000715 22.988432 27.612614 -99.747955 1441.140503
40 1441.140503 -0.000954 -0.000715 22.988438 27.612619 -99.747955 1441.140503
[L_Leg03]
38 1686.963989 -0.000715 -0.000954 -0.195298 0.149535 163.251740 1686.963989
39 1686.963989 -0.000715 -0.000954 -0.195298 0.149535 163.251740 1686.963989
40 1686.963989 -0.000715 -0.000954 -0.195298 0.149535 163.251740 1686.963989
[L_Foot]
38 3041.570068 -30.715107 11.297464 7.624718 -1.347613 60.355808 3041.746094
39 3041.570068 -30.715107 11.297464 7.624718 -1.347613 60.355808 3041.746094
40 3041.570068 -30.715107 11.297464 7.624718 -1.347613 60.355808 3041.746094
[L_Toe1_01]
38 -188.216690 -224.732346 -21.137953 95.283562 -10.224730 171.492508 293.899567
39 -188.216690 -224.732346 -21.137953 95.283516 -10.225005 171.493881 293.899567
40 -188.216690 -224.732346 -21.137953 95.283478 -10.225282 171.495255 293.899567
[L_Toe2_01]
38 200.746536 -219.926590 148.838394 -94.238228 -34.148346 -37.012024 332.896027
39 200.746536 -219.926590 148.838394 -94.237488 -34.148411 -37.013775 332.896027
40 200.746536 -219.926590 148.838394 -94.236732 -34.148479 -37.015537 332.896027
[L_Toe3_01]
38 188.832520 -219.859131 -191.078659 -95.121498 15.022013 -45.004925 347.140900
39 188.832520 -219.859131 -191.078659 -95.121498 15.022013 -45.004925 347.140900
40 188.832520 -219.859131 -191.078659 -95.121498 15.022013 -45.004925 347.140900
[planeAlignerLeft]
38 0.812531 -811.448792 -0.314951 0.000000 -90.000000 -90.001900 811.449280
39 0.812531 -811.448792 -0.314951 0.000000 -90.000000 -90.001900 811.449280
40 0.812531 -811.448792 -0.314951 0.000000 -90.000000 -90.001900 811.449280
[L_Toe1_02]
38 413.761139 0.000477 0.000000 0.000203 -25.410625 -0.000182 413.761139
39 413.761139 0.000477 0.000000 0.000203 -25.410625 -0.000182 413.761139
40 413.761139 0.000477 0.000000 0.000203 -25.410625 -0.000182 413.761139
[L_Toe1_03]
38 464.317322 0.000358 -0.000089 0.005737 66.392120 0.005737 464.317322
39 464.317322 0.000358 -0.000089 0.005737 66.391396 0.005737 464.317322
40 464.317322 0.000358 -0.000089 0.005737 66.390633 0.005737 464.317322
[L_Toe2_02]
38 342.235809 -0.000477 0.000238 0.001186 -73.630745 0.001186 342.235809
39 342.235809 -0.000477 0.000238 0.001186 -73.629356 0.001186 342.235809
40 342.235809 -0.000477 0.000238 0.001186 -73.627960 0.001186 342.235809
[L_Toe2_03]
38 420.210846 -0.000715 0.000000 -0.057842 88.825638 -0.054345 420.210846
39 420.210846 -0.000715 0.000000 -0.057794 88.824463 -0.054297 420.210846
40 420.210846 -0.000715 0.000000 -0.057746 88.823631 -0.054249 420.210846
[L_Toe3_02]
38 329.270111 0.000954 0.000000 0.004676 -84.228035 0.004676 329.270111
39 329.270111 0.000954 0.000000 0.004676 -84.226059 0.004676 329.270111
40 329.270111 0.000954 0.000000 0.004676 -84.224159 0.004676 329.270111
[L_Toe3_03]
38 439.137451 -0.001907 0.000954 179.992401 55.407951 179.999725 439.137451
39 439.137451 -0.001907 0.000954 179.992401 55.409229 179.999725 439.137451
40 439.137451 -0.001907 0.000954 179.992401 55.410511 179.999725 439.137451
[planeLockWeightLeft]
38 -0.000954 0.000238 -0.000305 -0.011826 -0.004376 0.005620 0.001029
39 -0.000954 0.000238 -0.000305 -0.011826 -0.004376 0.005620 0.001029
40 -0.000954 0.000238 -0.000305 -0.011826 -0.004376 0.005620 0.001029
[R_Leg01]
38 761.455627 -0.001907 -0.000358 72.571846 -5.958475 106.501350 761.455688
39 761.455627 -0.001907 -0.000358 72.544441 -5.949465 106.499695 761.455688
40 761.455627 -0.001907 -0.000358 72.517036 -5.940455 106.498024 761.455688
[R_Leg02]
38 1441.140625 0.000000 -0.000238 20.170263 31.315775 -150.546982 1441.140625
39 1441.140625 0.000000 -0.000238 20.170263 31.315775 -150.546982 1441.140625
40 1441.140625 0.000000 -0.000238 20.170263 31.315775 -150.546982 1441.140625
[R_Leg03]
38 1686.963989 0.000954 0.001431 0.209315 -0.161957 166.977676 1686.963989
39 1686.963989 0.000954 0.001431 0.209315 -0.161957 166.977676 1686.963989
40 1686.963989 0.000954 0.001431 0.209315 -0.161957 166.977676 1686.963989
[R_Foot]
38 3041.560059 -30.531288 -11.204481 42.299713 -45.544197 36.267616 3041.734131
39 3041.560059 -30.531288 -11.204481 42.325165 -45.565418 36.240318 3041.734131
40 3041.560059 -30.531288 -11.204481 42.350632 -45.586617 36.212990 3041.734131
[planeAlignerRight]
38 -0.635147 -812.270569 -0.364304 0.000000 -89.960434 -90.005180 812.270874
39 -0.635147 -812.270569 -0.364304 0.000000 -89.960434 -90.005180 812.270874
40 -0.635147 -812.270569 -0.364304 0.000000 -89.960434 -90.005180 812.270874
[R_Toe1_01]
38 -188.383347 -224.864899 21.052242 90.575348 8.462499 175.364456 294.101532
39 -188.383347 -224.864899 21.052242 90.575348 8.462499 175.364456 294.101532
40 -188.383347 -224.864899 21.052242 90.575348 8.462499 175.364456 294.101532
[R_Toe2_01]
38 200.637817 -220.002121 -148.787384 -82.260239 10.458051 -29.564980 332.857574
39 200.637817 -220.002121 -148.787384 -82.260292 10.458067 -29.564959 332.857574
40 200.637817 -220.002121 -148.787384 -82.260345 10.458080 -29.564928 332.857574
[R_Toe3_01]
38 188.606735 -220.092957 191.126343 -69.666328 -41.490734 -42.966614 347.192566
39 188.606735 -220.092957 191.126343 -69.666328 -41.490772 -42.966579 347.192566
40 188.606735 -220.092957 191.126343 -69.666313 -41.490799 -42.966557 347.192566
[planeLockWeightRight]
38 -0.000477 0.000000 0.000000 -0.011823 -0.004379 -0.000027 0.000477
39 -0.000477 0.000000 0.000000 -0.011823 -0.004379 -0.000027 0.000477
40 -0.000477 0.000000 0.000000 -0.011823 -0.004379 -0.000027 0.000477
[R_Toe1_02]
38 413.762085 0.000477 -0.000119 0.001409 -22.856655 0.001409 413.762085
39 413.762085 0.000477 -0.000119 0.001409 -22.855877 0.001409 413.762085
40 413.762085 0.000477 -0.000119 0.001409 -22.855093 0.001409 413.762085
[R_Toe1_03]
38 464.317810 0.000000 0.001088 0.012353 79.096718 0.012353 464.317810
39 464.317810 0.000000 0.001088 0.012353 79.096703 0.012353 464.317810
40 464.317810 0.000000 0.001088 0.012353 79.096649 0.012353 464.317810
[R_Toe2_02]
38 342.234741 -0.000954 0.000238 0.001192 -69.583298 0.001192 342.234741
39 342.234741 -0.000954 0.000238 0.001192 -69.583321 0.001192 342.234741
40 342.234741 -0.000954 0.000238 0.001192 -69.583298 0.001192 342.234741
[R_Toe2_03]
38 420.210846 0.000715 -0.000268 0.011858 78.639618 0.011858 420.210846
39 420.210846 0.000715 -0.000268 0.011858 78.639687 0.011858 420.210846
40 420.210846 0.000715 -0.000268 0.011858 78.639717 0.011858 420.210846
[R_Toe3_02]
38 329.270355 -0.000477 -0.000954 0.001179 -79.434776 0.001179 329.270355
39 329.270355 -0.000477 -0.000954 0.001179 -79.434776 0.001179 329.270355
40 329.270355 -0.000477 -0.000954 0.001179 -79.434776 0.001179 329.270355
[R_Toe3_03]
38 439.137939 0.000238 0.001431 -179.993027 82.447189 -179.989532 439.137939
39 439.137939 0.000238 0.001431 -179.993027 82.447212 -179.989532 439.137939
40 439.137939 0.000238 0.001431 -179.993027 82.447136 -179.989532 439.137939
[Rear_Leg02]
38 1162.777710 -0.029802 0.005960 -35.321384 23.868574 -110.592628 1162.777710
39 1162.777710 -0.029802 0.005960 -35.143246 23.772472 -110.518684 1162.777710
40 1162.777710 -0.029802 0.005960 -34.965389 23.676170 -110.445122 1162.777710
[Rear_Leg03]
38 607.192505 -0.013351 -0.073195 0.010080 -0.005878 76.846344 607.192505
39 607.192505 -0.013351 -0.073195 0.010080 -0.005878 76.846329 607.192505
40 607.192505 -0.013351 -0.073195 0.010080 -0.005878 76.846329 607.192505
[Rear_Leg04]
38 995.874512 -0.020504 -0.011921 -0.042982 -0.017811 89.140625 995.874573
39 995.874512 -0.020504 -0.011921 -0.042982 -0.017811 89.140625 995.874573
40 995.874512 -0.020504 -0.011921 -0.042982 -0.017811 89.140625 995.874573
[Rear_Foot]
38 3096.176270 -0.067472 -0.041425 55.829388 46.024822 -123.046677 3096.176270
39 3096.176270 -0.067472 -0.041425 55.778721 46.207436 -123.084259 3096.176270
40 3096.176270 -0.067472 -0.041425 55.727692 46.389999 -123.122192 3096.176270
[planeAlignerCenter]
38 0.350077 0.966311 -838.790894 0.000009 0.000003 -179.999985 838.791565
39 0.350077 0.966311 -838.790894 0.000009 0.000003 -179.999985 838.791565
40 0.350077 0.966311 -838.790894 0.000009 0.000003 -179.999985 838.791565
[Rear_Toe1_01]
38 0.653352 83.966492 -371.173737 5.377184 30.438513 103.608566 380.553192
39 0.653352 83.966492 -371.173737 5.377105 30.437885 103.608597 380.553192
40 0.653352 83.966492 -371.173737 5.377035 30.437260 103.608620 380.553192
[Rear_Toe2_01]
38 178.200760 -294.826019 -362.060547 -8.739971 22.929159 -73.396767 499.765686
39 178.200760 -294.826019 -362.060547 -8.739944 22.928566 -73.396759 499.765686
40 178.200760 -294.826019 -362.060547 -8.739912 22.927975 -73.396736 499.765686
[Rear_Toe3_01]
38 -153.359680 -308.780914 -362.060852 3.780762 19.475760 -119.571304 499.952881
39 -153.359680 -308.780914 -362.060852 3.780983 19.475189 -119.571289 499.952881
40 -153.359680 -308.780914 -362.060852 3.781204 19.474619 -119.571274 499.952881
[planeLockWeightCenter]
38 -0.000062 0.000238 0.000000 -0.011814 -0.004373 -0.000015 0.000246
39 -0.000062 0.000238 0.000000 -0.011814 -0.004373 -0.000015 0.000246
40 -0.000062 0.000238 0.000000 -0.011814 -0.004373 -0.000015 0.000246
[Rear_Toe1_02]
38 379.707825 0.194073 0.000477 -0.000339 -32.994450 0.006989 379.707855
39 379.707825 0.194073 0.000477 -0.000339 -32.995266 0.006989 379.707855
40 379.707825 0.194073 0.000477 -0.000339 -32.996086 0.006989 379.707855
[Rear_Toe1_03]
38 500.129700 0.165701 0.000119 -0.004072 60.592529 -0.000457 500.129761
39 500.129700 0.165701 0.000119 -0.004072 60.593204 -0.000457 500.129761
40 500.129700 0.165701 0.000119 -0.004072 60.593872 -0.000457 500.129761
[Rear_Toe2_02]
38 340.494507 0.000238 -0.000954 0.001179 -79.125450 0.001179 340.494507
39 340.494507 0.000238 -0.000954 0.001179 -79.126358 0.001179 340.494507
40 340.494507 0.000238 -0.000954 0.001179 -79.127151 0.001179 340.494507
[Rear_Toe2_03]
38 433.103577 0.000000 0.000238 0.031887 85.781372 0.031887 433.103546
39 433.103577 0.000000 0.000238 0.031893 85.782249 0.031893 433.103546
40 433.103577 0.000000 0.000238 0.031899 85.782997 0.031899 433.103546
[Rear_Toe3_02]
38 340.494141 -0.000358 -0.000477 -0.002471 -50.126827 -0.002471 340.494171
39 340.494141 -0.000358 -0.000477 -0.002471 -50.127663 -0.002471 340.494171
40 340.494141 -0.000358 -0.000477 -0.002471 -50.128494 -0.002471 340.494171
[Rear_Toe3_03]
38 433.103577 0.001431 -0.000238 0.000411 44.475365 -0.003381 433.103546
39 433.103577 0.001431 -0.000238 0.000411 44.476284 -0.003381 433.103546
40 433.103577 0.001431 -0.000238 0.000410 44.477207 -0.003381 433.103546
[Back_Bone]
38 1312.175781 -701.934692 0.000954 14.436758 2.868636 -96.602402 1488.125488
39 1312.175781 -701.934692 0.000954 14.436758 2.868638 -96.602409 1488.125488
40 1312.175781 -701.934692 0.000954 14.436758 2.868636 -96.602402 1488.125488
[Head]
38 1406.159424 809.709290 0.001431 4.759904 14.176730 40.831047 1622.625488
39 1406.159424 809.709290 0.001431 4.759904 14.176730 40.831047 1622.625488
40 1406.159424 809.709290 0.001431 4.759904 14.176730 40.831047 1622.625488
[Motor_Bone]
38 1158.364380 -417.834747 0.000477 0.110881 7.212780 -101.764511 1231.419434
39 1158.364380 -417.834747 0.000477 0.116707 7.136630 -101.969162 1231.419434
40 1158.364380 -417.834747 0.000477 0.122806 7.060504 -102.173759 1231.419434
[Ping_Mechanism]
38 1204.636475 -414.062042 50.778057 0.000103 -0.000053 82.120995 1274.823364
39 1204.637817 -414.068909 50.780949 0.000103 -0.000053 82.120995 1274.827026
40 1204.639160 -414.075745 50.783840 0.000103 -0.000053 82.120995 1274.830688
[BN_LookIK]
38 193.241119 1380.371704 -0.002861 0.000000 89.965736 -31.038179 1393.832153
39 193.241119 1380.371704 -0.002861 0.000000 89.965736 -31.038179 1393.832153
40 193.241119 1380.371704 -0.002861 0.000000 89.965736 -31.038179 1393.832153
[bottomMouth]
38 -435.092926 615.759399 -0.000954 -0.000022 0.000016 73.527184 753.966492
39 -435.092926 615.759399 -0.000954 -0.000022 0.000016 73.527184 753.966492
40 -435.092926 615.759399 -0.000954 -0.000022 0.000016 73.527184 753.966492
[L_Mouth01]
38 554.440979 7.658243 838.222046 150.204178 23.759130 109.605339 1005.027161
39 554.440979 7.658243 838.222046 150.204178 23.759130 109.605339 1005.027161
40 554.440979 7.658243 838.222046 150.204178 23.759130 109.605339 1005.027161
[L_mouthFront]
38 551.629089 934.514771 339.150421 0.000081 2.804060 79.119301 1136.941284
39 551.629089 934.514771 339.150421 0.000081 2.804060 79.119301 1136.941284
40 551.629089 934.514771 339.150421 0.000081 2.804060 79.119301 1136.941284
[mouthGun]
38 55.332661 1627.420898 0.000000 0.000023 0.000009 -11.038128 1628.361328
39 55.332661 1627.420898 0.000000 0.000023 0.000009 -11.038128 1628.361328
40 55.332661 1627.420898 0.000000 0.000023 0.000009 -11.038128 1628.361328
[R_Mouth01]
38 554.442383 7.659197 -838.223938 29.795891 -23.759109 109.605331 1005.029541
39 554.442383 7.659197 -838.223938 29.795891 -23.759109 109.605331 1005.029541
40 554.442383 7.659197 -838.223938 29.795891 -23.759109 109.605331 1005.029541
[R_mouthFront]
38 551.629089 934.514282 -339.151367 0.000029 -2.803930 79.119133 1136.941162
39 551.629089 934.514282 -339.151367 0.000029 -2.803930 79.119133 1136.941162
40 551.629089 934.514282 -339.151367 0.000029 -2.803930 79.119133 1136.941162
[TopMouth]
38 461.269867 -56.106091 -0.008583 -0.000059 -0.000268 92.025169 464.669525
39 461.269867 -56.106091 -0.008583 -0.000059 -0.000268 92.025169 464.669525
40 461.269867 -56.106091 -0.008583 -0.000059 -0.000268 92.025169 464.669525
[weapon_bone]
38 -987.239868 1448.372803 0.001431 0.000000 89.965736 -31.038221 1752.833740
39 -987.239868 1448.372803 0.001431 0.000000 89.965736 -31.038221 1752.833740
40 -987.239868 1448.372803 0.001431 0.000000 89.965736 -31.038221 1752.833740
